<svg xmlns="http://www.w3.org/2000/svg" width="58.975" height="58.959" viewBox="0 0 58.975 58.959">
  <g id="icon_04" data-name="icon 04" transform="translate(0 -0.009)">
    <circle id="Ellipse_15" data-name="Ellipse 15" cx="11" cy="11" r="11" transform="translate(0 36.968)" fill="rgba(91,58,204,0.15)"/>
    <path id="Path_85" data-name="Path 85" d="M33.5,50.968c-.1,0-.2,0-.305-.007l-.165-.005a1,1,0,0,1,.02-2h.02l.431.012q.265,0,.528-.006h.021a1,1,0,1,1,.021,2C33.882,50.966,33.69,50.968,33.5,50.968Zm4.521-.416a1,1,0,0,1-.183-1.982c.316-.06.631-.126.942-.2a1,1,0,1,1,.441,1.951q-.506.114-1.015.21a1.07,1.07,0,0,1-.185.021Zm4.79-1.416a1,1,0,0,1-.38-1.925q.446-.183.88-.384a1,1,0,0,1,.838,1.816c-.315.146-.636.285-.958.417a.973.973,0,0,1-.38.076Zm4.4-2.361a1,1,0,0,1-.56-1.829c.265-.179.525-.362.783-.553A1,1,0,0,1,48.621,46q-.418.309-.852.6a.992.992,0,0,1-.558.175Zm3.828-3.2a1,1,0,0,1-.716-1.7q.334-.344.655-.7a1,1,0,1,1,1.488,1.336q-.35.39-.712.761a1,1,0,0,1-.715.3Zm3.1-3.906a1,1,0,0,1-.841-1.54q.258-.4.5-.816a1,1,0,1,1,1.726,1.01c-.175.3-.355.6-.543.887a1,1,0,0,1-.838.458Zm2.249-4.451a1,1,0,0,1-.933-1.358q.171-.446.323-.9a1,1,0,1,1,1.9.639q-.167.493-.353.979a1,1,0,0,1-.933.639Zm1.3-4.818a.956.956,0,0,1-.159-.013A1,1,0,0,1,56.7,29.24c.051-.315.1-.633.133-.952a1,1,0,0,1,1.986.24q-.063.517-.145,1.028a1,1,0,0,1-.987.844ZM9,26.494a.977.977,0,0,1-1-.974c0-.383.006-.71.019-1.037a1,1,0,0,1,2,.074Q10,25.01,10,25.468a1.022,1.022,0,0,1-1,1.026Zm48.977-1.077a1,1,0,0,1-1-.959c-.014-.319-.033-.638-.06-.954a1,1,0,0,1,1.992-.17q.045.519.065,1.042a1,1,0,0,1-.958,1.04ZM9.493,21.555a.967.967,0,0,1-.2-.02,1,1,0,0,1-.782-1.179q.1-.513.229-1.016a1,1,0,1,1,1.941.477c-.075.31-.146.621-.209.936A1,1,0,0,1,9.493,21.555Zm47.77-1.076a1,1,0,0,1-.969-.758c-.078-.31-.162-.616-.252-.921a1,1,0,1,1,1.916-.57q.15.5.275,1.007a1,1,0,0,1-.728,1.212A.955.955,0,0,1,57.263,20.479ZM10.984,16.793a1,1,0,0,1-.917-1.4c.137-.317.28-.633.43-.943a1,1,0,0,1,1.8.865q-.207.43-.4.871A1,1,0,0,1,10.984,16.793Zm44.574-1a1,1,0,0,1-.9-.564c-.14-.289-.285-.573-.437-.855a1,1,0,1,1,1.764-.944c.163.306.322.615.474.928a1,1,0,0,1-.465,1.336,1.014,1.014,0,0,1-.436.094ZM13.41,12.437a1,1,0,0,1-.818-1.574c.2-.285.4-.564.614-.841a1,1,0,1,1,1.59,1.214q-.291.38-.565.772a.994.994,0,0,1-.821.429Zm39.522-.9a1,1,0,0,1-.794-.392q-.292-.38-.6-.747A1,1,0,1,1,53.072,9.12c.223.267.44.537.651.813a1,1,0,0,1-.185,1.4.985.985,0,0,1-.606.209ZM16.672,8.661a1,1,0,0,1-.688-1.726q.378-.358.771-.7a1,1,0,1,1,1.314,1.508c-.24.21-.478.424-.71.644A1,1,0,0,1,16.672,8.661ZM49.5,7.915a1,1,0,0,1-.654-.243c-.24-.208-.486-.412-.735-.609a1,1,0,1,1,1.24-1.568q.408.323.8.664A1,1,0,0,1,49.5,7.915Zm-28.873-2.3A1,1,0,0,1,20.1,3.767q.444-.275.9-.53a1,1,0,1,1,.982,1.742q-.418.236-.827.489a.983.983,0,0,1-.526.15Zm24.784-.564a1,1,0,0,1-.487-.127c-.277-.155-.559-.3-.842-.447a1,1,0,1,1,.9-1.787q.467.234.92.488a1,1,0,0,1-.49,1.873ZM25.119,3.439A1,1,0,0,1,24.775,1.5c.327-.12.657-.232.991-.339a1,1,0,0,1,.606,1.906c-.305.1-.607.2-.907.31A1,1,0,0,1,25.119,3.439Zm15.713-.356a1.013,1.013,0,0,1-.3-.046q-.456-.144-.921-.268a1,1,0,1,1,.52-1.932q.506.137,1,.291a1,1,0,0,1-.3,1.955ZM29.96,2.221A1,1,0,0,1,29.817.232Q30.331.157,30.851.1a1,1,0,0,1,.2,1.991c-.319.032-.637.071-.95.117a.9.9,0,0,1-.141.013Zm5.984-.133a.69.69,0,0,1-.1-.005c-.316-.031-.636-.057-.958-.075A1,1,0,0,1,33.948.951a.987.987,0,0,1,1.057-.94c.348.021.692.048,1.036.081a1,1,0,0,1-.1,2Z" fill="rgba(91,58,204,0.15)"/>
    <path id="Path_86" data-name="Path 86" d="M21,20.968a17,17,0,0,0-17,17c0,.492.034.975.08,1.454A11,11,0,0,1,19.546,54.888c.48.045.963.08,1.454.08a17,17,0,1,0,0-34Z" fill="#5b3acc"/>
  </g>
</svg>
