<svg xmlns="http://www.w3.org/2000/svg" width="60" height="37" viewBox="0 0 60 37">
  <g id="icon_05" data-name="icon 05" transform="translate(0 -11.5)">
    <g id="Group_161" data-name="Group 161">
      <path id="Path_108" data-name="Path 108" d="M15.265,18.877c-.578.377-1.148.781-1.694,1.2a1,1,0,0,0,.609,1.793.989.989,0,0,0,.608-.207c.506-.388,1.034-.762,1.569-1.112a1,1,0,1,0-1.092-1.675Z" fill="rgba(91,58,204,0.15)"/>
      <path id="Path_109" data-name="Path 109" d="M10.483,22.847c-.479.5-.941,1.023-1.376,1.554a1,1,0,1,0,1.547,1.268c.4-.492.832-.976,1.275-1.439a1,1,0,0,0-1.446-1.383Z" fill="rgba(91,58,204,0.15)"/>
      <path id="Path_110" data-name="Path 110" d="M4.134,38.665a1,1,0,0,0-1.067.928Q3,40.536,3,41.5a1,1,0,0,0,2,0q0-.893.062-1.768A1,1,0,0,0,4.134,38.665Z" fill="rgba(91,58,204,0.15)"/>
      <path id="Path_111" data-name="Path 111" d="M8.1,27.448a1,1,0,0,0-1.37.353c-.35.594-.682,1.208-.985,1.827a1,1,0,1,0,1.8.88c.281-.573.588-1.142.912-1.691A1,1,0,0,0,8.1,27.448Z" fill="rgba(91,58,204,0.15)"/>
      <path id="Path_112" data-name="Path 112" d="M27,14.694V14.5H7v2H19.853c-.316.128-.636.244-.947.384a1,1,0,0,0,.823,1.823c.585-.264,1.185-.507,1.782-.723a.937.937,0,0,0,.477-1.485h2.181a1,1,0,0,0,.855.482,1.037,1.037,0,0,0,.191-.018c.628-.122,1.268-.22,1.9-.293A.991.991,0,0,0,27,14.694Z" fill="rgba(91,58,204,0.15)"/>
      <path id="Path_113" data-name="Path 113" d="M5.463,32.825a1,1,0,0,0-1.252.658c-.2.66-.386,1.334-.539,2.006a1,1,0,1,0,1.95.443c.141-.621.309-1.246.5-1.855a1,1,0,0,0-.659-1.252Z" fill="rgba(91,58,204,0.15)"/>
      <path id="Path_114" data-name="Path 114" d="M56.921,39.427a1,1,0,1,0-1.994.152c.049.633.073,1.279.073,1.921a1,1,0,0,0,2,0C57,40.808,56.974,40.11,56.921,39.427Z" fill="rgba(91,58,204,0.15)"/>
      <path id="Path_115" data-name="Path 115" d="M54.181,29.477c-.31-.62-.646-1.233-1-1.822a1,1,0,1,0-1.715,1.029c.326.544.637,1.112.923,1.686a1,1,0,1,0,1.791-.893Z" fill="rgba(91,58,204,0.15)"/>
      <path id="Path_116" data-name="Path 116" d="M55.545,36.528a1,1,0,0,0,.746-1.2c-.157-.671-.343-1.345-.551-2a1,1,0,1,0-1.906.606c.193.608.365,1.231.51,1.853a1,1,0,0,0,1.2.745Z" fill="rgba(91,58,204,0.15)"/>
      <path id="Path_117" data-name="Path 117" d="M40.941,16.816c-.258-.115-.529-.209-.793-.316H53v-2H33v.194a.991.991,0,0,0-.115,1.977q.886.1,1.753.266a.99.99,0,0,0,1.015-.437h2.179a.91.91,0,0,0-.094.156,1,1,0,0,0,.608,1.277c.6.214,1.2.454,1.785.711a.99.99,0,0,0,.4.086,1,1,0,0,0,.4-1.914Z" fill="rgba(91,58,204,0.15)"/>
      <path id="Path_118" data-name="Path 118" d="M44.592,18.785a1,1,0,1,0-1.083,1.681c.539.347,1.069.718,1.577,1.1a1,1,0,1,0,1.207-1.594C45.746,19.559,45.173,19.159,44.592,18.785Z" fill="rgba(91,58,204,0.15)"/>
      <path id="Path_119" data-name="Path 119" d="M49.4,22.724a1,1,0,1,0-1.436,1.392c.442.457.874.938,1.284,1.432a1,1,0,1,0,1.539-1.278C50.342,23.737,49.875,23.217,49.4,22.724Z" fill="rgba(91,58,204,0.15)"/>
    </g>
    <g id="Group_162" data-name="Group 162">
      <rect id="Rectangle_161" data-name="Rectangle 161" width="6" height="6" transform="translate(1 41.5)" fill="#5b3acc"/>
      <path id="Path_120" data-name="Path 120" d="M8,48.5H0v-8H8Zm-6-2H6v-4H2Z" fill="#5b3acc"/>
    </g>
    <g id="Group_163" data-name="Group 163">
      <rect id="Rectangle_162" data-name="Rectangle 162" width="6" height="6" transform="translate(53 41.5)" fill="#5b3acc"/>
      <path id="Path_121" data-name="Path 121" d="M60,48.5H52v-8h8Zm-6-2h4v-4H54Z" fill="#5b3acc"/>
    </g>
    <g id="Group_164" data-name="Group 164">
      <rect id="Rectangle_163" data-name="Rectangle 163" width="6" height="6" transform="translate(27 12.5)" fill="#5b3acc"/>
      <path id="Path_122" data-name="Path 122" d="M34,19.5H26v-8h8Zm-6-2h4v-4H28Z" fill="#5b3acc"/>
    </g>
    <g id="Group_165" data-name="Group 165">
      <circle id="Ellipse_16" data-name="Ellipse 16" cx="3" cy="3" r="3" transform="translate(1 12.5)" fill="#5b3acc"/>
      <path id="Path_123" data-name="Path 123" d="M4,19.5a4,4,0,1,1,4-4,4,4,0,0,1-4,4Zm0-6a2,2,0,1,0,2,2A2,2,0,0,0,4,13.5Z" fill="#5b3acc"/>
    </g>
    <g id="Group_166" data-name="Group 166">
      <circle id="Ellipse_17" data-name="Ellipse 17" cx="3" cy="3" r="3" transform="translate(53 12.5)" fill="#5b3acc"/>
      <path id="Path_124" data-name="Path 124" d="M56,19.5a4,4,0,1,1,4-4A4,4,0,0,1,56,19.5Zm0-6a2,2,0,1,0,2,2A2,2,0,0,0,56,13.5Z" fill="#5b3acc"/>
    </g>
  </g>
</svg>
