<svg id="icon_01" data-name="icon 01" xmlns="http://www.w3.org/2000/svg" width="60" height="60" viewBox="0 0 60 60">
  <path id="Path_87" data-name="Path 87" d="M55,17a.994.994,0,0,1-.6-.2l-4-3a1,1,0,0,1,1.2-1.6l4,3A1,1,0,0,1,55,17Z" fill="#5b3acc"/>
  <path id="Path_88" data-name="Path 88" d="M55,17a1,1,0,0,1-1-1V14A12.013,12.013,0,0,0,42,2a1,1,0,1,1,0-2A14.015,14.015,0,0,1,56,14l2.4-1.8a1,1,0,1,1,1.2,1.6l-4,3A1,1,0,0,1,55,17Z" fill="#5b3acc"/>
  <path id="Path_89" data-name="Path 89" d="M10,48a.994.994,0,0,1-.6-.2l-4-3a1,1,0,0,1,1.2-1.6l4,3A1,1,0,0,1,10,48Z" fill="#5b3acc"/>
  <path id="Path_90" data-name="Path 90" d="M19,60A14.015,14.015,0,0,1,5,46L2.6,47.8a1,1,0,1,1-1.2-1.6l4-3A1,1,0,0,1,7,44v2A12.013,12.013,0,0,0,19,58a1,1,0,0,1,0,2Z" fill="#5b3acc"/>
  <g id="Group_159" data-name="Group 159">
    <g id="Group_157" data-name="Group 157">
      <path id="Path_91" data-name="Path 91" d="M19,20a1.05,1.05,0,0,1-.71-.29,1.014,1.014,0,0,1,0-1.42,1.047,1.047,0,0,1,1.42,0A1.033,1.033,0,0,1,20,19a1.007,1.007,0,0,1-1,1Z" fill="rgba(91,58,204,0.15)"/>
      <path id="Path_92" data-name="Path 92" d="M14.4,19a1,1,0,0,1,1-1h0a1,1,0,0,1,1,1h0a1,1,0,0,1-1,1h0A1,1,0,0,1,14.4,19Zm-3.6,0a1,1,0,0,1,1-1h0a1,1,0,0,1,1,1h0a1,1,0,0,1-1,1h0A1,1,0,0,1,10.8,19ZM7.2,19a1,1,0,0,1,1-1h0a1,1,0,0,1,1,1h0a1,1,0,0,1-1,1h0A1,1,0,0,1,7.2,19ZM3.6,19a1,1,0,0,1,1-1h0a1,1,0,0,1,1,1h0a1,1,0,0,1-1,1h0A1,1,0,0,1,3.6,19Z" fill="rgba(91,58,204,0.15)"/>
      <path id="Path_93" data-name="Path 93" d="M1,20a1.029,1.029,0,0,1-.71-.29,1.014,1.014,0,0,1,0-1.42,1.047,1.047,0,0,1,1.42,0,1.014,1.014,0,0,1,0,1.42A1.033,1.033,0,0,1,1,20Z" fill="rgba(91,58,204,0.15)"/>
      <path id="Path_94" data-name="Path 94" d="M0,37.33a1,1,0,0,1,1-1H1a1,1,0,0,1,1,1H2a1,1,0,0,1-1,1H1A1,1,0,0,1,0,37.33Zm0-3.66a1,1,0,0,1,1-1H1a1,1,0,0,1,1,1H2a1,1,0,0,1-1,1H1a1,1,0,0,1-1-1ZM0,30a1,1,0,0,1,1-1H1a1,1,0,0,1,1,1H2a1,1,0,0,1-1,1H1A1,1,0,0,1,0,30Zm0-3.67a1,1,0,0,1,1-1H1a1,1,0,0,1,1,1H2a1,1,0,0,1-1,1H1A1,1,0,0,1,0,26.33Zm0-3.66a1,1,0,0,1,1-1H1a1,1,0,0,1,1,1H2a1,1,0,0,1-1,1H1A1,1,0,0,1,0,22.67Z" fill="rgba(91,58,204,0.15)"/>
      <path id="Path_95" data-name="Path 95" d="M1,42a1,1,0,0,1-.71-.3A.987.987,0,0,1,0,41a1.047,1.047,0,0,1,.29-.71,1.047,1.047,0,0,1,1.42,0,1.014,1.014,0,0,1,0,1.42A1.033,1.033,0,0,1,1,42Z" fill="rgba(91,58,204,0.15)"/>
      <path id="Path_96" data-name="Path 96" d="M14.4,41a1,1,0,0,1,1-1h0a1,1,0,0,1,1,1h0a1,1,0,0,1-1,1h0A1,1,0,0,1,14.4,41Zm-3.6,0a1,1,0,0,1,1-1h0a1,1,0,0,1,1,1h0a1,1,0,0,1-1,1h0A1,1,0,0,1,10.8,41ZM7.2,41a1,1,0,0,1,1-1h0a1,1,0,0,1,1,1h0a1,1,0,0,1-1,1h0A1,1,0,0,1,7.2,41ZM3.6,41a1,1,0,0,1,1-1h0a1,1,0,0,1,1,1h0a1,1,0,0,1-1,1h0A1,1,0,0,1,3.6,41Z" fill="rgba(91,58,204,0.15)"/>
      <path id="Path_97" data-name="Path 97" d="M19,42a1.05,1.05,0,0,1-.71-.29,1.014,1.014,0,0,1,0-1.42,1.047,1.047,0,0,1,1.42,0A1.033,1.033,0,0,1,20,41a1.007,1.007,0,0,1-1,1Z" fill="rgba(91,58,204,0.15)"/>
      <path id="Path_98" data-name="Path 98" d="M18,37.33a1,1,0,0,1,1-1h0a1,1,0,0,1,1,1h0a1,1,0,0,1-1,1h0A1,1,0,0,1,18,37.33Zm0-3.66a1,1,0,0,1,1-1h0a1,1,0,0,1,1,1h0a1,1,0,0,1-1,1h0a1,1,0,0,1-1-1ZM18,30a1,1,0,0,1,1-1h0a1,1,0,0,1,1,1h0a1,1,0,0,1-1,1h0A1,1,0,0,1,18,30Zm0-3.67a1,1,0,0,1,1-1h0a1,1,0,0,1,1,1h0a1,1,0,0,1-1,1h0A1,1,0,0,1,18,26.33Zm0-3.66a1,1,0,0,1,1-1h0a1,1,0,0,1,1,1h0a1,1,0,0,1-1,1h0A1,1,0,0,1,18,22.67Z" fill="rgba(91,58,204,0.15)"/>
    </g>
    <g id="Group_158" data-name="Group 158">
      <path id="Path_99" data-name="Path 99" d="M42,20a1,1,0,1,1,.71-1.71A1.014,1.014,0,0,1,43,19a.982.982,0,0,1-.3.71A1.009,1.009,0,0,1,42,20Z" fill="rgba(91,58,204,0.15)"/>
      <path id="Path_100" data-name="Path 100" d="M41,37.33a1,1,0,0,1,1-1h0a1,1,0,0,1,1,1h0a1,1,0,0,1-1,1h0A1,1,0,0,1,41,37.33Zm0-3.66a1,1,0,0,1,1-1h0a1,1,0,0,1,1,1h0a1,1,0,0,1-1,1h0a1,1,0,0,1-1-1ZM41,30a1,1,0,0,1,1-1h0a1,1,0,0,1,1,1h0a1,1,0,0,1-1,1h0A1,1,0,0,1,41,30Zm0-3.67a1,1,0,0,1,1-1h0a1,1,0,0,1,1,1h0a1,1,0,0,1-1,1h0A1,1,0,0,1,41,26.33Zm0-3.66a1,1,0,0,1,1-1h0a1,1,0,0,1,1,1h0a1,1,0,0,1-1,1h0A1,1,0,0,1,41,22.67Z" fill="rgba(91,58,204,0.15)"/>
      <path id="Path_101" data-name="Path 101" d="M42,42a1,1,0,1,1,.71-1.71A1.033,1.033,0,0,1,43,41a1.007,1.007,0,0,1-1,1Z" fill="rgba(91,58,204,0.15)"/>
      <path id="Path_102" data-name="Path 102" d="M53.75,41a1,1,0,0,1,1-1h0a1,1,0,0,1,1,1h0a1,1,0,0,1-1,1h0A1,1,0,0,1,53.75,41ZM49.5,41a1,1,0,0,1,1-1h0a1,1,0,0,1,1,1h0a1,1,0,0,1-1,1h0A1,1,0,0,1,49.5,41Zm-4.25,0a1,1,0,0,1,1-1h0a1,1,0,0,1,1,1h0a1,1,0,0,1-1,1h0A1,1,0,0,1,45.25,41Z" fill="rgba(91,58,204,0.15)"/>
      <path id="Path_103" data-name="Path 103" d="M59,42a.99.99,0,1,1,.71-.29A1.033,1.033,0,0,1,59,42Z" fill="rgba(91,58,204,0.15)"/>
      <path id="Path_104" data-name="Path 104" d="M58,37.33a1,1,0,0,1,1-1h0a1,1,0,0,1,1,1h0a1,1,0,0,1-1,1h0A1,1,0,0,1,58,37.33Zm0-3.66a1,1,0,0,1,1-1h0a1,1,0,0,1,1,1h0a1,1,0,0,1-1,1h0a1,1,0,0,1-1-1ZM58,30a1,1,0,0,1,1-1h0a1,1,0,0,1,1,1h0a1,1,0,0,1-1,1h0A1,1,0,0,1,58,30Zm0-3.67a1,1,0,0,1,1-1h0a1,1,0,0,1,1,1h0a1,1,0,0,1-1,1h0A1,1,0,0,1,58,26.33Zm0-3.66a1,1,0,0,1,1-1h0a1,1,0,0,1,1,1h0a1,1,0,0,1-1,1h0A1,1,0,0,1,58,22.67Z" fill="rgba(91,58,204,0.15)"/>
      <path id="Path_105" data-name="Path 105" d="M59,20a.99.99,0,1,1,.71-.29A1.05,1.05,0,0,1,59,20Z" fill="rgba(91,58,204,0.15)"/>
      <path id="Path_106" data-name="Path 106" d="M53.75,19a1,1,0,0,1,1-1h0a1,1,0,0,1,1,1h0a1,1,0,0,1-1,1h0A1,1,0,0,1,53.75,19ZM49.5,19a1,1,0,0,1,1-1h0a1,1,0,0,1,1,1h0a1,1,0,0,1-1,1h0A1,1,0,0,1,49.5,19Zm-4.25,0a1,1,0,0,1,1-1h0a1,1,0,0,1,1,1h0a1,1,0,0,1-1,1h0A1,1,0,0,1,45.25,19Z" fill="rgba(91,58,204,0.15)"/>
    </g>
  </g>
  <g id="Group_160" data-name="Group 160">
    <rect id="Rectangle_160" data-name="Rectangle 160" width="23" height="58" transform="translate(19 1)" fill="#5b3acc"/>
    <path id="Path_107" data-name="Path 107" d="M43,60H18V0H43ZM20,58H41V2H20Z" fill="#5b3acc"/>
  </g>
</svg>
