<svg id="logo-white-blue" xmlns="http://www.w3.org/2000/svg" width="105.921" height="36.191" viewBox="0 0 105.921 36.191">
  <path id="Path_349" data-name="Path 349" d="M575.239,543.332h3.674v-3.34c0-2.672,1.725-4.731,5.121-4.731H587.6v4.063h-2.727c-.779,0-1.225.39-1.225,1.28v2.672H587.6v4.063h-3.952v14.639h-4.731V547.339h-3.674v-4.008Z" transform="translate(-575.239 -535.261)" fill="#f5fafd"/>
  <path id="Path_350" data-name="Path 350" d="M717.239,563.186V537.861h4.731v25.325Z" transform="translate(-638.202 -536.414)" fill="#f5fafd"/>
  <path id="Path_351" data-name="Path 351" d="M665.27,568.064h-4.731v-18.7h4.731v1.5a7.372,7.372,0,0,1,11.188,1.28,7.131,7.131,0,0,1,13.136,3.9v12.023h-4.731V556.987a3.733,3.733,0,1,0-7.458,0v11.076h-4.731V556.987a3.733,3.733,0,1,0-7.458,0v11.076Z" transform="translate(-613.061 -541.291)" fill="#f5fafd"/>
  <path id="Path_352" data-name="Path 352" d="M607.536,568.665a9.861,9.861,0,1,1,10.3-9.852A10.115,10.115,0,0,1,607.536,568.665Zm0-15.529a5.622,5.622,0,1,0,5.566,5.622A5.594,5.594,0,0,0,607.536,553.136Z" transform="translate(-584.994 -541.336)" fill="#f5fafd"/>
  <path id="Path_353" data-name="Path 353" d="M646.478,553.758c-2.226,0-4.008,1.614-4.008,4.508v10.074h-4.731V549.584h4.731v2a5.122,5.122,0,0,1,4.453-2.226h1.28V553.7h-1.725Z" transform="translate(-602.952 -541.513)" fill="#f5fafd"/>
  <path id="Path_354" data-name="Path 354" d="M737,568.129l-7.959-18.368h5.121l5.176,12.635,5.121-12.635h4.9l-9.128,22.208c-1.225,3.061-2.839,4.063-5.677,4.063h-2.783v-4.008h1.781a2.412,2.412,0,0,0,2.56-1.892Z" transform="translate(-643.434 -541.69)" fill="#f5fafd"/>
  <g id="Group_8436" data-name="Group 8436" transform="translate(27.168 29.354)">
    <path id="Path_355" data-name="Path 355" d="M624.05,590.755a14.269,14.269,0,0,0,19.982,0L641.277,588c-3.639,3.856-10.833,3.856-14.472,0Z" transform="translate(-624.05 -588)" fill="#007bfc"/>
  </g>
</svg>
